<?xml version="1.0" encoding="UTF-8" standalone="no"?>
<!-- Generator: Adobe Illustrator 23.1.1, SVG Export Plug-In . SVG Version: 6.00 Build 0)  -->

<svg
   xmlns:dc="http://purl.org/dc/elements/1.1/"
   xmlns:cc="http://creativecommons.org/ns#"
   xmlns:rdf="http://www.w3.org/1999/02/22-rdf-syntax-ns#"
   xmlns:svg="http://www.w3.org/2000/svg"
   xmlns="http://www.w3.org/2000/svg"
   xmlns:xlink="http://www.w3.org/1999/xlink"
   xmlns:sodipodi="http://sodipodi.sourceforge.net/DTD/sodipodi-0.dtd"
   xmlns:inkscape="http://www.inkscape.org/namespaces/inkscape"
   version="1.1"
   id="Livello_1"
   x="0px"
   y="0px"
   viewBox="0 0 44.999998 44.999995"
   xml:space="preserve"
   sodipodi:docname="it.svg"
   width="45"
   height="44.999996"
   inkscape:version="0.92.4 (5da689c313, 2019-01-14)"><metadata
   id="metadata287"><rdf:RDF><cc:Work
       rdf:about=""><dc:format>image/svg+xml</dc:format><dc:type
         rdf:resource="http://purl.org/dc/dcmitype/StillImage" /><dc:title></dc:title></cc:Work></rdf:RDF></metadata><defs
   id="defs285" /><sodipodi:namedview
   pagecolor="#ffffff"
   bordercolor="#666666"
   borderopacity="1"
   objecttolerance="10"
   gridtolerance="10"
   guidetolerance="10"
   inkscape:pageopacity="0"
   inkscape:pageshadow="2"
   inkscape:window-width="1920"
   inkscape:window-height="1136"
   id="namedview283"
   showgrid="false"
   fit-margin-top="5"
   fit-margin-right="5"
   fit-margin-bottom="5"
   fit-margin-left="5"
   inkscape:zoom="1.046981"
   inkscape:cx="-147.03569"
   inkscape:cy="274.83487"
   inkscape:window-x="0"
   inkscape:window-y="27"
   inkscape:window-maximized="1"
   inkscape:current-layer="g280" />
<style
   type="text/css"
   id="style2">
	.st0{clip-path:url(#SVGID_2_);fill:none;stroke:#152632;stroke-width:1.5;stroke-linecap:round;stroke-miterlimit:10;}
	.st1{clip-path:url(#SVGID_4_);fill:none;stroke:#152632;stroke-linecap:round;stroke-miterlimit:10;}
	.st2{clip-path:url(#SVGID_6_);fill:#0A8ACD;}
	.st3{clip-path:url(#SVGID_6_);fill:#FFFFFF;}
	.st4{fill:#FFFFFF;}
	.st5{clip-path:url(#SVGID_8_);fill:#FFFFFF;}
	.st6{clip-path:url(#SVGID_10_);fill:#FFFFFF;}
	.st7{clip-path:url(#SVGID_12_);fill:#C61B1C;}
	.st8{fill:#C61B1C;}
	.st9{clip-path:url(#SVGID_14_);fill:#C61B1C;}
	.st10{clip-path:url(#SVGID_16_);fill:#C61B1C;}
	.st11{clip-path:url(#SVGID_18_);fill:#C61B1C;}
	.st12{clip-path:url(#SVGID_20_);fill:#E6E8E8;}
	.st13{clip-path:url(#SVGID_20_);fill:#2B9646;}
	.st14{clip-path:url(#SVGID_20_);fill:#C61B1C;}
	.st15{clip-path:url(#SVGID_20_);fill:#FFFFFF;}
</style>



































































<g
   id="g280"
   transform="translate(-94.980003,-418.95)">
	<defs
   id="defs267">
		<rect
   id="SVGID_19_"
   x="99.980003"
   y="396.59"
   width="62.360001"
   height="62.360001" />
	</defs>
	<clipPath
   id="SVGID_20_">
		<use
   xlink:href="#SVGID_19_"
   style="overflow:visible"
   id="use269"
   x="0"
   y="0"
   width="100%"
   height="100%" />
	</clipPath>
	<path
   class="st12"
   d="m 131.17,396.59 h -0.01 c 0,0 0.01,0 0.01,0 z"
   clip-path="url(#SVGID_20_)"
   id="path272"
   inkscape:connector-curvature="0"
   style="fill:#e6e8e8"
   transform="matrix(0.56125717,0,0,0.56125717,43.86551,201.36102)" />
	<path
   class="st13"
   d="m 99.98,427.77 c 0,11.85 6.61,22.15 16.34,27.43 v -27.43 -27.43 c -9.74,5.28 -16.34,15.58 -16.34,27.43"
   clip-path="url(#SVGID_20_)"
   id="path274"
   inkscape:connector-curvature="0"
   style="fill:#2b9646"
   transform="matrix(0.69248656,0,0,0.56125717,30.745194,201.36102)" />
	<path
   class="st14"
   d="m 146,400.34 v 27.43 27.43 c 9.73,-5.28 16.34,-15.58 16.34,-27.43 0,-11.85 -6.61,-22.15 -16.34,-27.43"
   clip-path="url(#SVGID_20_)"
   id="path276"
   inkscape:connector-curvature="0"
   style="fill:#c61b1c"
   transform="matrix(0.69248656,0,0,0.56125717,22.561735,201.36102)" />
	<path
   class="st15"
   d="m 131.17,396.59 c 0,0 -0.01,0 -0.01,0 -5.37,0 -10.43,1.36 -14.84,3.75 v 27.43 27.43 c 4.41,2.39 9.47,3.76 14.84,3.76 0.01,0 0.01,0 0.01,0 5.37,0 10.42,-1.36 14.83,-3.75 v -27.43 -27.43 c -4.41,-2.4 -9.46,-3.76 -14.83,-3.76"
   clip-path="url(#SVGID_20_)"
   id="path278"
   inkscape:connector-curvature="0"
   style="fill:#ffffff"
   transform="matrix(0.41648277,0,0,0.56125717,62.849954,201.36102)" />
</g>
</svg>